#!OML:ASF H:\Terrain\Patient Classification 1\Terrain2\Thursday\justin.ASF
:FULLY-SPECIFIED
:DEGREES
2429
root 10.321 17.2898 21.4593 -82.9983 76.3124 -74.7626
lowerback 21.6882 1.17111 14.0791
upperback 7.30246 5.38789 4.36716
thorax -3.18293 3.03883 -4.44937
lowerneck -13.4469 -3.23315 -9.73416
upperneck 36.7605 -1.46548 3.44747
head 15.2774 -0.979596 3.08381
rclavicle 5.88403e-014 6.20208e-014
rhumerus -17.095 2.69132 -83.3251
rradius 41.6272
rwrist -19.2737
rhand -20.8219 11.332
rfingers 7.12502
rthumb 5.54629 -18.5754
lclavicle 5.88403e-014 6.20208e-014
lhumerus -31.7214 5.79892 84.5401
lradius 36.943
lwrist 1.48387
lhand -18.9032 21.498
lfingers 7.12502
lthumb 7.3986 51.3486
rfemur 11.6202 -3.66214 36.8633
rtibia 28.3713
rfoot -17.8884 7.02444
rtoes 11.2715
lfemur -81.8106 7.92793 -10.5323
ltibia 101.137
lfoot -4.72721 -12.7905
ltoes 17.5303
2430
root 10.4187 17.3204 21.4364 -80.4955 76.5625 -72.8244
lowerback 21.7102 1.37072 13.7116
upperback 7.17843 5.55088 4.20362
thorax -3.32514 3.09103 -4.46949
lowerneck -13.6501 -3.21859 -9.98135
upperneck 36.7298 -1.44964 3.68114
head 15.3147 -0.980474 3.22872
rclavicle 2.16675e-014 -1.19271e-015
rhumerus -17.374 2.9358 -83.4225
rradius 41.5284
rwrist -19.361
rhand -20.4672 11.5315
rfingers 7.12502
rthumb 5.88877 -18.3666
lclavicle 2.16675e-014 -1.19271e-015
lhumerus -31.7227 6.02642 84.5678
lradius 36.8279
lwrist 1.173
lhand -18.855 21.6061
lfingers 7.12502
lthumb 7.44509 51.4551
rfemur 11.4486 -3.47006 36.2018
rtibia 28.1922
rfoot -17.128 7.88405
rtoes 10.8282
lfemur -81.9854 8.12112 -10.909
ltibia 101.384
lfoot -5.59123 -12.2953
ltoes 16.1175
2431
root 10.5272 17.3419 21.4231 -79.8566 76.2763 -72.7414
lowerback 21.5794 1.3636 13.712
upperback 7.1116 5.52942 4.3274
thorax -3.3495 3.07233 -4.32588
lowerneck -14.0612 -3.18693 -10.2159
upperneck 36.8065 -1.23514 3.5262
head 15.4374 -0.951267 3.2425
rclavicle -1.5207e-014 -2.70347e-014
rhumerus -17.6119 3.50433 -83.4129
rradius 41.4624
rwrist -19.5767
rhand -20.4252 11.5309
rfingers 7.12502
rthumb 5.92932 -18.3661
lclavicle -1.5207e-014 -2.70347e-014
lhumerus -31.7633 6.50876 84.618
lradius 36.7619
lwrist 0.933847
lhand -18.6495 21.7365
lfingers 7.12502
lthumb 7.64343 51.5784
rfemur 11.2334 -3.52632 36.3177
rtibia 28.1396
rfoot -16.9563 8.02664
rtoes 7.88801
lfemur -82.2934 8.26224 -10.7451
ltibia 101.703
lfoot -6.39987 -12.154
ltoes 14.5443
2432
root 10.6349 17.3801 21.4093 -79.7443 75.8107 -73.1755
lowerback 21.4898 1.33016 14.0675
upperback 7.00383 5.5546 4.37734
thorax -3.385 3.07728 -4.46734
lowerneck -14.268 -3.16608 -10.2164
upperneck 36.7778 -1.16253 3.44363
head 15.4658 -0.936437 3.21781
rclavicle 1.98785e-014 4.85035e-014
rhumerus -17.8329 3.65228 -83.535
rradius 41.2148
rwrist -19.5002
rhand -20.4555 11.8421
rfingers 7.12502
rthumb 5.90005 -18.0558
lclavicle 1.98785e-014 4.85035e-014
lhumerus -31.8134 6.88739 84.5385
lradius 36.6917
lwrist 0.747833
lhand -18.8323 21.8067
lfingers 7.12502
lthumb 7.46705 51.6549
rfemur 11.2229 -3.61839 36.643
rtibia 27.7453
rfoot -16.3913 8.15537
rtoes 5.21418
lfemur -82.4317 8.3257 -10.275
ltibia 101.92
lfoot -7.08727 -12.1807
ltoes 13.6789
2433
root 10.7393 17.4537 21.3942 -78.6522 76.0519 -72.6312
lowerback 21.5077 1.48456 13.8935
upperback 6.82668 5.69409 4.09021
thorax -3.55188 3.11584 -4.72255
lowerneck -14.134 -3.17151 -10.0526
upperneck 36.5263 -1.32108 3.59375
head 15.3185 -0.959309 3.21551
rclavicle 3.61788e-014 -1.82882e-014
rhumerus -18.1647 3.55717 -83.8176
rradius 40.9501
rwrist -19.4888
rhand -20.3045 12.0111
rfingers 7.12502
rthumb 6.04587 -17.8827
lclavicle 3.61788e-014 -1.82882e-014
lhumerus -31.8673 6.75847 84.4203
lradius 36.5952
lwrist 0.847774
lhand -19.3031 21.9161
lfingers 7.12502
lthumb 7.0126 51.7799
rfemur 11.3194 -3.4047 36.1885
rtibia 27.1592
rfoot -15.2049 8.63105
rtoes 6.68918
lfemur -82.2118 8.18556 -10.4862
ltibia 101.867
lfoot -7.87414 -11.7832
ltoes 12.3117
2434
root 10.8485 17.5164 21.3784 -77.1843 76.4707 -71.6827
lowerback 21.5452 1.64902 13.4283
upperback 6.67747 5.78536 3.80859
thorax -3.73891 3.12934 -4.80502
lowerneck -13.985 -3.11382 -9.98161
upperneck 36.2345 -1.3395 3.69129
head 15.139 -0.943438 3.22859
rclavicle -2.3059e-014 1.19271e-015
rhumerus -18.572 3.73123 -84.0472
rradius 40.7797
rwrist -19.5985
rhand -20.5509 12.004
rfingers 7.12502
rthumb 5.80794 -17.8964
lclavicle -2.3059e-014 1.19271e-015
lhumerus -32.0231 6.52353 84.326
lradius 36.5343
lwrist 1.1432
lhand -19.3216 21.4486
lfingers 7.12502
lthumb 6.99475 51.313
rfemur 11.2312 -3.17801 35.5409
rtibia 26.594
rfoot -13.8369 9.30393
rtoes 9.95135
lfemur -82.0523 8.03261 -10.8439
ltibia 101.799
lfoot -8.61677 -11.4058
ltoes 11.8526
2435
root 10.962 17.607 21.3622 -76.3802 76.8618 -71.3882
lowerback 21.5367 1.67177 12.8814
upperback 6.60071 5.67913 3.66076
thorax -3.8802 3.05633 -4.65015
lowerneck -14.2264 -2.98348 -10.2199
upperneck 36.2347 -1.12118 3.86665
head 15.1793 -0.86498 3.38188
rclavicle -4.92986e-014 -4.37326e-015
rhumerus -18.8466 4.02786 -84.1871
rradius 40.4482
rwrist -19.3072
rhand -20.8226 12.0622
rfingers 7.12502
rthumb 5.54564 -17.8452
lclavicle -4.92986e-014 -4.37326e-015
lhumerus -32.2036 6.94413 84.256
lradius 36.5747
lwrist 1.09008
lhand -19.1882 21.4268
lfingers 7.12502
lthumb 7.12345 51.287
rfemur 11.3087 -3.10524 34.9478
rtibia 25.9441
rfoot -12.5335 9.74099
rtoes 8.52109
lfemur -81.603 7.90682 -11.1394
ltibia 101.537
lfoot -9.40981 -11.4909
ltoes 13.4013
2436
root 11.079 17.7317 21.3481 -74.2463 77.9129 -69.8864
lowerback 21.4256 1.87428 11.66
upperback 6.50258 5.61882 3.29103
thorax -4.02994 2.99855 -4.36802
lowerneck -14.5468 -2.95271 -10.4082
upperneck 36.3073 -1.05888 4.05993
head 15.287 -0.844637 3.51242
rclavicle 5.96354e-015 2.0276e-014
rhumerus -19.0172 3.97016 -84.3704
rradius 39.8686
rwrist -18.761
rhand -20.5725 12.2186
rfingers 7.12502
rthumb 5.78714 -17.6824
lclavicle 5.96354e-015 2.0276e-014
lhumerus -32.1949 7.45139 84.1301
lradius 36.4433
lwrist 0.974289
lhand -19.1836 21.7852
lfingers 7.12502
lthumb 7.1279 51.6451
rfemur 11.3597 -2.77023 33.6679
rtibia 25.0924
rfoot -11.0709 9.8836
rtoes 4.27699
lfemur -80.7961 7.70631 -12.226
ltibia 100.958
lfoot -10.2673 -11.5034
ltoes 15.3033
2437
root 11.1964 17.8367 21.3339 -70.8628 78.9064 -67.2425
lowerback 21.2399 2.19021 10.4661
upperback 6.33417 5.69821 2.83979
thorax -4.18309 3.00639 -4.2107
lowerneck -14.6216 -2.97755 -10.3827
upperneck 36.2484 -1.13386 4.13216
head 15.282 -0.865324 3.52352
rclavicle 5.41688e-014 1.92821e-014
rhumerus -19.331 3.87014 -84.5616
rradius 39.3458
rwrist -18.4507
rhand -20.0521 12.5018
rfingers 7.12502
rthumb 6.28948 -17.3848
lclavicle 5.41688e-014 1.92821e-014
lhumerus -32.1707 7.60861 83.8657
lradius 36.1428
lwrist 1.43117
lhand -19.0958 21.0185
lfingers 7.12502
lthumb 7.21267 50.8756
rfemur 11.2097 -2.01385 32.4381
rtibia 24.2792
rfoot -9.18336 10.0263
rtoes 2.97566
lfemur -80.2448 7.5238 -13.3695
ltibia 100.375
lfoot -11.0749 -11.2012
ltoes 16.1202
2438
root 11.3107 17.9563 21.3229 -69.6893 79.1061 -66.6713
lowerback 21.231 2.33459 10.2059
upperback 6.15663 5.80428 2.57052
thorax -4.35451 3.03433 -4.38765
lowerneck -14.6652 -3.01921 -10.1756
upperneck 36.2833 -1.24513 4.11036
head 15.3153 -0.887933 3.46056
rclavicle 9.5516e-014 1.49089e-014
rhumerus -19.7317 3.65227 -84.7837
rradius 38.837
rwrist -18.0654
rhand -19.6853 12.2625
rfingers 7.12502
rthumb 6.64358 -17.6133
lclavicle 9.5516e-014 1.49089e-014
lhumerus -32.1781 7.40637 83.6369
lradius 35.8713
lwrist 2.33655
lhand -18.8644 20.3322
lfingers 7.12502
lthumb 7.43601 50.1815
rfemur 11.2018 -1.55239 32.1501
rtibia 23.4582
rfoot -6.96541 10.0333
rtoes 1.147
lfemur -79.6627 7.40748 -13.5998
ltibia 99.7534
lfoot -11.8116 -11.0348
ltoes 16.2622
